<svg xmlns="http://www.w3.org/2000/svg" viewBox="0 0 128 128" width="128" height="128">
  <defs>
    <radialGradient id="bg" cx="50%" cy="40%" r="60%">
      <stop offset="0%" stop-color="#1c1c14"/>
      <stop offset="100%" stop-color="#080808"/>
    </radialGradient>
    <radialGradient id="ball" cx="36%" cy="30%" r="65%">
      <stop offset="0%" stop-color="#f5f2e8"/>
      <stop offset="55%" stop-color="#ddd8c4"/>
      <stop offset="100%" stop-color="#b8b09a"/>
    </radialGradient>
    <radialGradient id="shine" cx="36%" cy="30%" r="38%">
      <stop offset="0%" stop-color="rgba(255,255,255,0.6)"/>
      <stop offset="100%" stop-color="rgba(255,255,255,0)"/>
    </radialGradient>
    <radialGradient id="glow" cx="50%" cy="50%" r="50%">
      <stop offset="0%" stop-color="#e8971e" stop-opacity="0.3"/>
      <stop offset="100%" stop-color="#e8971e" stop-opacity="0"/>
    </radialGradient>
    <filter id="shadow">
      <feDropShadow dx="0" dy="2" stdDeviation="5" flood-color="#000" flood-opacity="0.7"/>
    </filter>
    <clipPath id="clip">
      <circle cx="63" cy="60" r="43"/>
    </clipPath>
  </defs>

  <rect width="128" height="128" rx="22" fill="url(#bg)"/>
  <circle cx="63" cy="60" r="52" fill="url(#glow)"/>
  <circle cx="63" cy="60" r="43" fill="url(#ball)" filter="url(#shadow)"/>

  <g clip-path="url(#clip)">
    <polygon fill="#111" stroke="#333" stroke-width="0.8"
      points="63,22 72,29 68.5,40 57.5,40 54,29"/>

    <polygon fill="#111" stroke="#333" stroke-width="0.8"
      points="54,29 43,26 36,36 40,47 50.5,48"/>
    <polygon fill="#111" stroke="#333" stroke-width="0.8"
      points="72,29 83,26 90,36 86,47 75.5,48"/>

    <polygon fill="#111" stroke="#333" stroke-width="0.8"
      points="57.5,40 50.5,48 54,59 63,63 72,59 75.5,48 68.5,40"/>

    <polygon fill="#111" stroke="#333" stroke-width="0.8"
      points="50.5,48 40,47 32,58 36,70 48,72"/>
    <polygon fill="#111" stroke="#333" stroke-width="0.8"
      points="75.5,48 78,72 90,70 94,58 86,47"/>

    <polygon fill="#111" stroke="#333" stroke-width="0.8"
      points="54,59 48,72 56,82 72,82 80,72 72,59 63,63"/>

    <polygon fill="#111" stroke="#333" stroke-width="0.8"
      points="48,72 36,70 28,82 34,94 48,94"/>
    <polygon fill="#111" stroke="#333" stroke-width="0.8"
      points="78,72 80,94 94,94 100,82 90,70"/>
  </g>

  <circle cx="63" cy="60" r="43" fill="none" stroke="#222" stroke-width="2"/>
  <circle cx="63" cy="60" r="43" fill="url(#shine)"/>

  <text x="64" y="113"
    font-family="'Arial Black', 'Impact', sans-serif"
    font-size="10.5" font-weight="900" letter-spacing="2.5"
    text-anchor="middle" fill="#e8971e">FCAUDIENCE</text>

  <line x1="20" y1="118" x2="108" y2="118"
    stroke="#e8971e" stroke-width="0.7" opacity="0.45"/>
</svg>
